<?xml version="1.0" standalone="no"?>
<!DOCTYPE svg PUBLIC "-//W3C//DTD SVG 20010904//EN"
 "http://www.w3.org/TR/2001/REC-SVG-20010904/DTD/svg10.dtd">
<svg version="1.0" xmlns="http://www.w3.org/2000/svg"
 width="1920.000000pt" height="1080.000000pt" viewBox="0 0 1920.000000 1080.000000"
 preserveAspectRatio="xMidYMid meet">

<g transform="translate(0.000000,1080.000000) scale(0.100000,-0.100000)"
fill="#000000" stroke="none">
<path d="M6318 6563 l-3 -138 -132 -3 -133 -3 0 -659 0 -660 -30 0 -29 0 -3
-82 -3 -83 -60 -3 c-104 -5 -105 -4 -105 88 l0 80 -207 -2 -208 -3 -5 -80 -5
-80 -77 -3 -78 -3 0 -354 0 -355 40 0 c45 0 60 -18 60 -74 l0 -36 309 0 310 0
3 53 3 52 42 3 c37 3 42 6 45 30 2 21 9 28 33 32 27 5 30 9 35 50 4 38 9 46
29 48 13 2 28 -2 32 -10 5 -7 9 -68 9 -135 l0 -123 210 0 209 0 3 83 3 82 30
0 30 0 3 -82 3 -83 159 0 159 0 3 83 3 82 63 3 62 3 0 -86 0 -85 215 0 215 0
0 85 0 85 79 0 c59 0 82 4 91 15 7 9 23 15 34 13 16 -2 22 -12 26 -43 5 -39 6
-40 50 -45 l45 -5 3 -52 3 -53 215 0 214 0 0 49 c0 53 8 61 60 61 24 0 29 5
32 28 2 20 9 28 28 31 31 4 65 38 74 73 4 20 13 28 34 30 24 3 27 7 30 46 3
39 5 42 33 42 l29 0 0 -180 0 -180 410 0 410 0 0 85 0 85 65 0 65 0 0 -85 0
-85 215 0 215 0 0 86 0 85 28 -3 c27 -3 27 -4 30 -85 l3 -83 164 0 165 0 0 85
0 86 63 -3 c59 -3 62 -4 65 -30 3 -24 8 -28 37 -28 44 0 65 -22 65 -71 l0 -39
305 0 305 0 0 36 c0 56 15 74 60 74 35 0 39 3 42 27 2 22 9 29 33 33 28 5 30
8 33 53 3 46 4 48 30 45 l27 -3 3 -132 3 -133 214 0 215 0 0 85 0 85 80 0 79
0 3 158 3 157 80 0 80 0 3 -242 2 -243 210 0 210 0 0 73 c0 39 4 77 8 84 4 7
38 13 82 15 l75 3 3 243 2 243 78 -3 77 -3 5 -175 5 -175 95 -5 95 -5 3 -147
3 -148 209 0 209 0 3 83 3 82 75 5 75 5 3 55 c2 38 9 60 23 73 15 14 19 31 19
87 l0 70 80 0 80 0 0 265 0 266 -112 -3 -113 -3 -3 -77 c-3 -89 -6 -92 -103
-86 l-54 3 -5 80 -5 80 -210 0 -210 0 -5 -80 -5 -80 -39 -3 c-22 -2 -50 -1
-63 2 -22 6 -23 11 -23 81 l0 75 -62 0 c-35 0 -69 4 -76 8 -9 6 -12 38 -10
123 l3 114 135 5 135 5 3 254 c2 179 -1 258 -9 267 -9 11 -59 14 -245 14
l-234 0 0 410 0 410 -349 0 -348 0 -7 -31 c-3 -17 -6 -80 -6 -140 l0 -109 -94
0 c-52 0 -101 3 -110 6 -14 5 -16 27 -16 140 l0 134 -670 0 -670 0 -5 -22 c-3
-13 -6 -77 -8 -143 l-2 -120 -94 -3 c-60 -2 -98 1 -107 9 -10 9 -14 40 -14
123 0 61 -3 121 -6 134 l-6 22 -264 0 -264 0 0 -85 c0 -101 7 -97 -155 -93
l-110 3 -3 88 -3 87 -269 0 -270 0 0 -134 c0 -102 -3 -136 -14 -145 -9 -8 -46
-11 -103 -9 l-88 3 -6 140 c-3 77 -7 141 -8 143 0 1 -158 2 -351 2 l-349 0 -3
-137 -3 -138 -105 0 -105 0 -3 45 c-2 24 -9 48 -15 52 -7 4 -42 8 -79 8 l-68
0 0 85 0 85 -595 0 -594 0 -3 -137z m1076 1 c3 -9 6 -44 6 -79 l0 -64 78 -3
77 -3 0 -240 0 -240 -77 -3 -77 -3 -3 -77 -3 -77 -240 -5 -240 -5 -1 -110 c-1
-60 -2 -131 -3 -157 l-1 -48 -240 0 -240 0 0 558 c0 307 3 562 7 565 3 4 219
7 479 7 421 0 473 -2 478 -16z m1084 4 c9 -9 12 -148 12 -564 0 -494 -2 -552
-16 -558 -9 -3 -112 -6 -229 -6 -117 0 -220 3 -229 6 -14 6 -16 64 -16 554 0
302 3 555 6 564 5 14 35 16 233 16 163 0 230 -3 239 -12z m760 -1 c6 -7 12
-44 14 -82 l3 -70 75 -5 75 -5 5 -75 5 -75 70 0 70 0 5 75 5 75 75 5 75 5 3
72 c2 44 8 75 16 82 9 8 64 11 162 9 l149 -3 0 -160 0 -160 -77 -3 -77 -3 -3
-77 -3 -77 -75 -5 -75 -5 0 -75 0 -75 75 -5 75 -5 3 -77 3 -77 77 -3 77 -3 0
-160 0 -160 -130 -3 c-71 -2 -145 0 -162 3 l-33 6 0 79 0 79 -77 3 -78 3 -5
75 -5 75 -70 0 -70 0 -5 -75 -5 -75 -75 -5 -75 -5 -3 -77 -3 -77 -32 -6 c-18
-3 -90 -5 -162 -3 l-130 3 0 160 0 160 78 3 77 3 0 67 c0 37 4 72 8 79 4 7 37
13 77 15 l70 3 0 75 0 75 -75 5 -75 5 -5 75 -5 75 -75 5 -75 5 -3 150 c-1 82
0 155 2 162 8 19 299 19 314 0z m2377 -152 l0 -160 -315 -5 -315 -5 -3 -69
c-2 -49 1 -72 10 -77 7 -5 80 -9 161 -9 l148 0 -3 -77 -3 -78 -158 -3 -158 -3
3 -77 3 -77 318 -3 317 -2 -2 -163 -3 -162 -540 -3 c-297 -1 -550 0 -562 3
l-23 5 0 549 c0 302 3 557 6 565 6 15 62 16 563 14 l556 -3 0 -160z m922 157
c10 -6 13 -102 15 -403 l3 -394 238 -3 237 -2 -2 -163 -3 -162 -475 0 -475 0
-3 555 c-1 305 0 561 3 568 3 9 58 12 227 12 123 0 229 -4 235 -8z m-2427
-563 l0 -130 -52 3 -53 3 -3 114 c-1 63 0 121 2 128 4 8 23 13 56 13 l50 0 0
-131z m1570 1 l0 -130 -110 0 -110 0 0 130 0 130 110 0 110 0 0 -130z m-2980
-270 l0 -130 -50 0 -50 0 0 130 0 130 50 0 50 0 0 -130z m-1082 -282 l2 -357
-157 -3 -158 -3 -5 -80 -5 -80 -60 0 -60 0 -5 80 -5 80 -110 0 -110 0 -3 -77
c-2 -66 -6 -78 -22 -83 -27 -8 -40 1 -40 30 0 26 -17 35 -66 35 -34 0 -34 0
-34 45 0 31 -5 47 -15 51 -12 5 -15 29 -15 125 l0 119 240 0 240 0 0 98 c0 63
4 102 12 110 7 7 40 12 80 12 74 0 73 -1 80 75 3 29 5 30 56 33 l52 3 0 68 c0
37 3 71 7 75 4 4 28 6 53 4 l45 -3 3 -357z m920 -240 l3 -117 -48 -3 -48 -3
-5 -80 -5 -80 -54 -3 c-94 -5 -101 -1 -101 68 0 49 3 61 20 70 18 10 20 21 20
125 0 62 3 121 6 130 5 13 22 15 108 13 l101 -3 3 -117z m1567 -3 l0 -120 -85
-3 c-136 -5 -130 -10 -130 116 0 72 4 112 12 120 9 9 42 12 108 10 l95 -3 0
-120z m1575 6 c0 -96 -3 -120 -15 -125 -11 -4 -15 -23 -15 -80 0 -71 -1 -76
-23 -82 -13 -3 -41 -4 -63 -2 -34 3 -39 7 -42 29 -3 28 -23 39 -74 39 -24 0
-28 4 -28 30 0 19 7 33 20 40 18 10 20 21 20 134 0 67 3 126 7 129 3 4 53 7
110 7 l103 0 0 -119z m-2330 -56 l0 -65 -130 0 -130 0 0 58 c0 32 3 62 7 65 3
4 62 7 130 7 l123 0 0 -65z m-3002 -162 l-3 -68 -44 -3 c-80 -6 -91 1 -91 57
0 78 3 81 77 81 l64 0 -3 -67z m1510 3 c3 -67 -3 -76 -60 -76 -63 0 -68 5 -68
77 l0 64 63 -3 62 -3 3 -59z m940 -8 l3 -68 -50 0 c-75 0 -81 4 -81 64 0 66
12 78 75 74 l50 -3 3 -67z m947 2 l0 -65 -39 -3 c-22 -2 -50 -1 -63 2 -21 6
-23 12 -23 65 0 68 3 71 75 68 l50 -2 0 -65z m1043 58 c7 -7 12 -22 12 -34 0
-20 -6 -23 -47 -26 -44 -3 -48 -5 -51 -31 -3 -22 -10 -29 -32 -34 -26 -5 -29
-10 -32 -52 -3 -44 -4 -46 -33 -46 l-30 0 -3 75 c-2 44 -8 78 -15 82 -7 4 -29
8 -49 8 -33 0 -38 3 -38 23 0 43 16 47 165 47 96 0 145 -4 153 -12z m1410 -55
l-3 -68 -60 0 -60 0 -3 54 c-5 78 -2 81 68 81 l61 0 -3 -67z m-6436 -215 l3
-243 140 0 140 0 3 243 2 242 50 0 50 0 -2 -292 -3 -293 -47 -3 -48 -3 0 -45
0 -44 -242 2 -243 3 -3 42 c-3 42 -3 42 -45 45 l-42 3 -3 293 -2 292 145 0
145 0 2 -242z m948 198 c0 -48 9 -56 66 -56 34 0 34 0 34 -45 l0 -45 38 0 c48
0 62 -14 62 -62 l0 -38 45 0 45 0 0 129 c0 71 3 136 6 145 4 11 19 16 50 16
l44 0 0 -340 0 -340 -94 0 c-110 0 -106 -4 -106 110 l0 79 -42 3 c-37 3 -43 6
-46 28 -7 68 -10 71 -55 68 l-42 -3 -3 -142 -3 -143 -144 0 -145 0 0 340 0
340 145 0 145 0 0 -44z m950 -296 l0 -340 -145 0 -145 0 0 340 0 340 145 0
145 0 0 -340z m550 209 c0 -72 5 -139 10 -150 8 -14 21 -19 50 -19 39 0 39 0
42 -42 l3 -43 45 0 45 0 5 40 c5 37 7 40 40 43 58 6 60 11 60 163 l0 139 45 0
45 0 -2 -242 -3 -243 -40 -5 c-38 -5 -40 -7 -43 -45 -4 -46 -14 -55 -64 -55
l-38 0 0 -45 0 -45 -144 0 -145 0 -3 43 c-3 42 -3 42 -48 47 l-45 5 -3 47 -3
47 -47 3 -47 3 -3 220 c-1 121 0 230 3 243 5 21 9 22 145 22 l140 0 0 -131z
m1345 31 l0 -95 -193 -3 -193 -2 3 -48 3 -47 93 -3 93 -3 -3 -42 -3 -42 -90
-5 -90 -5 0 -45 0 -45 190 -5 190 -5 0 -90 0 -90 -342 -3 -343 -2 0 333 c0
184 3 337 7 340 4 4 158 6 342 5 l336 -3 0 -95z m845 50 l5 -45 48 -3 48 -3
-3 -142 -3 -142 -35 -3 c-46 -5 -60 -18 -60 -57 0 -37 12 -45 66 -45 l35 0 -3
-97 -3 -98 -90 0 -90 0 -5 95 -5 95 -97 3 -98 3 0 -101 0 -101 -142 3 -143 3
-3 330 c-1 181 0 336 3 343 3 10 66 12 287 10 l283 -3 5 -45z m937 42 c6 -4
13 -25 15 -47 3 -39 4 -40 45 -43 46 -3 59 -22 51 -73 l-3 -24 -193 -3 -193
-2 3 -48 3 -47 190 -5 190 -5 3 -134 c3 -149 2 -151 -60 -151 l-37 0 -3 -47
-3 -48 -240 0 -240 0 -3 47 -3 47 -47 3 -47 3 0 45 0 45 290 5 290 5 3 43 c2
23 2 43 0 44 -2 1 -111 5 -243 8 l-240 5 -3 43 -3 42 -44 0 c-51 0 -55 6 -55
100 0 94 3 100 56 100 43 0 44 0 44 34 0 69 -12 66 239 66 124 0 231 -4 238
-8z m673 -332 l0 -340 -145 0 -145 0 0 340 0 340 145 0 145 0 0 -340z m935
240 l0 -95 -92 -3 -93 -3 -2 -242 -3 -242 -125 -3 c-69 -1 -135 0 -147 3 l-23
5 0 240 0 239 -92 3 -93 3 -3 75 c-2 41 0 85 3 98 l5 22 333 -2 332 -3 0 -95z
m565 5 l5 -90 142 -3 142 -3 3 93 3 93 45 0 45 0 0 -190 0 -190 -90 -3 c-56
-2 -92 -7 -97 -15 -4 -7 -8 -72 -8 -145 l0 -133 -142 3 -143 3 -5 140 -5 140
-92 3 -93 3 0 195 0 195 143 -3 142 -3 5 -90z m-3922 -247 l3 -78 -66 0 -65 0
0 73 c0 41 3 77 7 81 4 4 32 6 63 4 l55 -3 3 -77z m1043 -188 c16 0 10 -48 -7
-54 -28 -11 -54 3 -54 29 0 24 16 36 38 29 8 -2 18 -4 23 -4z"/>
<path d="M6920 6241 c-5 -11 -10 -82 -10 -160 0 -167 -17 -153 180 -149 l135
3 3 163 2 162 -149 0 c-138 0 -151 -2 -161 -19z"/>
<path d="M10112 4738 l3 -93 95 0 95 0 3 93 3 92 -101 0 -101 0 3 -92z"/>
</g>
</svg>
